<svg width="20" height="20" viewBox="0 0 20 20" fill="none" xmlns="http://www.w3.org/2000/svg">
<path d="M4.5922 16.417C3.40044 16.2997 2.50765 15.9418 1.9089 15.343C0.834961 14.2691 0.834961 12.5406 0.834961 9.08366V8.62533C0.834961 5.16836 0.834961 3.43988 1.9089 2.36593C2.98285 1.29199 4.71132 1.29199 8.16829 1.29199H11.835C15.2919 1.29199 17.0205 1.29199 18.0943 2.36593C19.1683 3.43988 19.1683 5.16836 19.1683 8.62533V9.08366C19.1683 12.5406 19.1683 14.2691 18.0943 15.343C17.0205 16.417 15.2919 16.417 11.835 16.417C11.3212 16.4284 10.912 16.4675 10.51 16.5591C9.41148 16.812 8.39425 17.3741 7.38901 17.8643C5.95664 18.5627 5.24046 18.912 4.79101 18.585C3.93118 17.9446 4.77162 15.9604 4.95996 15.042" stroke="white" stroke-width="1.375" stroke-linecap="round"/>
</svg>
