<svg width="22" height="22" viewBox="0 0 22 22" fill="none" xmlns="http://www.w3.org/2000/svg">
<path d="M7.33496 12.3753H14.6683M7.33496 7.79199H11.0016" stroke="black" stroke-width="1.375" stroke-linecap="round" stroke-linejoin="round"/>
<path d="M5.5922 17.417C4.40044 17.2997 3.50765 16.9418 2.9089 16.343C1.83496 15.2691 1.83496 13.5406 1.83496 10.0837V9.62533C1.83496 6.16836 1.83496 4.43988 2.9089 3.36593C3.98285 2.29199 5.71132 2.29199 9.16829 2.29199H12.835C16.2919 2.29199 18.0205 2.29199 19.0943 3.36593C20.1683 4.43988 20.1683 6.16836 20.1683 9.62533V10.0837C20.1683 13.5406 20.1683 15.2691 19.0943 16.343C18.0205 17.417 16.2919 17.417 12.835 17.417C12.3212 17.4284 11.912 17.4675 11.51 17.5591C10.4115 17.812 9.39425 18.3741 8.38901 18.8643C6.95664 19.5627 6.24046 19.912 5.79101 19.585C4.93118 18.9446 5.77162 16.9604 5.95996 16.042" stroke="black" stroke-width="1.375" stroke-linecap="round"/>
</svg>
