<svg width="22" height="22" viewBox="0 0 22 22" fill="none" xmlns="http://www.w3.org/2000/svg">
<path d="M6.02944 14.1917C4.73257 14.9639 1.33225 16.5406 3.40327 18.5137C4.41495 19.4775 5.5417 20.1669 6.9583 20.1669H15.0417C16.4583 20.1669 17.5851 19.4775 18.5967 18.5137C20.6677 16.5406 17.2674 14.9639 15.9705 14.1917C12.9294 12.3808 9.07059 12.3808 6.02944 14.1917Z" stroke="white" stroke-width="1.375" stroke-linecap="round" stroke-linejoin="round"/>
<path d="M15.125 5.9585C15.125 8.23667 13.2782 10.0835 11 10.0835C8.72183 10.0835 6.875 8.23667 6.875 5.9585C6.875 3.68032 8.72183 1.8335 11 1.8335C13.2782 1.8335 15.125 3.68032 15.125 5.9585Z" stroke="white" stroke-width="1.375"/>
</svg>
